0
SECTION
2
HEADER
9
$INSUNITS
70
4
9
$ACADVER
1
AC1014
9
$HANDSEED
5
FFFF
0
ENDSEC
0
SECTION
2
TABLES
0
TABLE
2
VPORT
5
8
100
AcDbSymbolTable
0
ENDTAB
0
TABLE
2
LTYPE
5
5
100
AcDbSymbolTable
0
LTYPE
5
14
100
AcDbSymbolTableRecord
100
AcDbLinetypeTableRecord
2
BYBLOCK
70
0
0
LTYPE
5
15
100
AcDbSymbolTableRecord
100
AcDbLinetypeTableRecord
2
BYLAYER
70
0
0
LTYPE
5
16
100
AcDbSymbolTableRecord
100
AcDbLinetypeTableRecord
2
DASHED
70
0
3
Dashed __ __ __ __ __ __ __ __ __ __ __ __ __ _
72
65
73
2
40
0.75
49
0.5
74
0
49
-0.25
74
0
0
ENDTAB
0
TABLE
2
LAYER
5
2
100
AcDbSymbolTable
70
2
0
LAYER
5
50
100
AcDbSymbolTableRecord
100
AcDbLayerTableRecord
2
0
70
0
62
7
6
CONTINUOUS
0
ENDTAB
0
TABLE
2
STYLE
5
3
100
AcDbSymbolTable
70
1
0
STYLE
5
11
100
AcDbSymbolTableRecord
100
AcDbTextStyleTableRecord
2
STANDARD
70
0
0
ENDTAB
0
TABLE
2
VIEW
5
6
100
AcDbSymbolTable
70
0
0
ENDTAB
0
TABLE
2
UCS
5
7
100
AcDbSymbolTable
70
0
0
ENDTAB
0
TABLE
2
APPID
5
9
100
AcDbSymbolTable
70
2
0
APPID
5
12
100
AcDbSymbolTableRecord
100
AcDbRegAppTableRecord
2
ACAD
70
0
0
ENDTAB
0
TABLE
2
DIMSTYLE
5
A
100
AcDbSymbolTable
70
1
0
ENDTAB
0
TABLE
2
BLOCK_RECORD
5
1
100
AcDbSymbolTable
70
1
0
BLOCK_RECORD
5
1F
100
AcDbSymbolTableRecord
100
AcDbBlockTableRecord
2
*MODEL_SPACE
0
BLOCK_RECORD
5
1B
100
AcDbSymbolTableRecord
100
AcDbBlockTableRecord
2
*PAPER_SPACE
0
ENDTAB
0
ENDSEC
0
SECTION
2
BLOCKS
0
BLOCK
5
20
100
AcDbEntity
100
AcDbBlockBegin
2
*MODEL_SPACE
0
ENDBLK
5
21
100
AcDbEntity
100
AcDbBlockEnd
0
BLOCK
5
1C
100
AcDbEntity
100
AcDbBlockBegin
2
*PAPER_SPACE
0
ENDBLK
5
1D
100
AcDbEntity
100
AcDbBlockEnd
0
ENDSEC
0
SECTION
2
ENTITIES
0
POINT
5
100
100
AcDbEntity
8
0
100
AcDbPoint
10
0
20
0
30
0
0
POINT
5
101
100
AcDbEntity
8
0
100
AcDbPoint
10
60
20
-37.500000000000007
30
0
0
POINT
5
102
100
AcDbEntity
8
0
100
AcDbPoint
10
75
20
-2.2204460492503131e-15
30
0
0
POINT
5
103
100
AcDbEntity
8
0
100
AcDbPoint
10
75
20
-2.2204460492503131e-15
30
0
0
POINT
5
104
100
AcDbEntity
8
0
100
AcDbPoint
10
0
20
-37.5
30
0
0
POINT
5
105
100
AcDbEntity
8
0
100
AcDbPoint
10
15
20
-37.500000000000007
30
0
0
POINT
5
106
100
AcDbEntity
8
0
100
AcDbPoint
10
60
20
0
30
0
0
POINT
5
107
100
AcDbEntity
8
0
100
AcDbPoint
10
45
20
0
30
0
0
POINT
5
108
100
AcDbEntity
8
0
100
AcDbPoint
10
45
20
0
30
0
0
POINT
5
109
100
AcDbEntity
8
0
100
AcDbPoint
10
45
20
-37.500000000000007
30
0
0
POINT
5
110
100
AcDbEntity
8
0
100
AcDbPoint
10
60
20
-2.2204460492503131e-15
30
0
0
POINT
5
111
100
AcDbEntity
8
0
100
AcDbPoint
10
60
20
-2.2204460492503131e-15
30
0
0
POINT
5
112
100
AcDbEntity
8
0
100
AcDbPoint
10
45
20
0
30
0
0
POINT
5
113
100
AcDbEntity
8
0
100
AcDbPoint
10
30
20
-37.500000000000007
30
0
0
LWPOLYLINE
5
114
100
AcDbEntity
8
0
100
AcDbPolyline
90
12
70
1
43
0.0
10
6.7499999999999973
20
27.965142774872934
10
6.7499999999999973
20
37.499999999999993
10
5.7499999999999973
20
37.499999999999993
10
5.7499999999999973
20
27.965142774872934
10
7
20
23.499999999999996
10
7
20
8.4000000000000004
10
6.1000000000000014
20
8.4000000000000004
10
6.1000000000000014
20
5.6000000000000005
10
8.9000000000000004
20
5.6000000000000005
10
8.9000000000000004
20
8.4000000000000004
10
8
20
8.4000000000000004
10
8
20
23.499999999999996
0
LWPOLYLINE
5
115
100
AcDbEntity
8
0
100
AcDbPolyline
90
4
70
1
43
0.0
10
15
20
37.499999999999993
10
15
20
0
10
30
20
0
10
30
20
37.499999999999993
0
LWPOLYLINE
5
116
100
AcDbEntity
8
0
100
AcDbPolyline
90
4
70
1
43
0.0
10
45
20
37.499999999999993
10
45
20
0
10
60
20
0
10
60
20
37.499999999999993
0
LWPOLYLINE
5
117
100
AcDbEntity
8
0
100
AcDbPolyline
90
10
70
1
43
0.0
10
3.2499999999999996
20
37.499999999999993
10
4.2499999999999973
20
37.499999999999993
10
4.2499999999999982
20
27.965142774872934
10
1.9999999999999996
20
23.499999999999996
10
1.9999999999999996
20
4.5000000000000009
10
7
20
4.5000000000000009
10
7
20
3.5000000000000004
10
1
20
3.5000000000000004
10
1
20
23.499999999999996
10
3.2499999999999996
20
27.965142774872934
0
LWPOLYLINE
5
118
100
AcDbEntity
8
0
100
AcDbPolyline
90
10
70
1
43
0.0
10
10.749999999999996
20
37.499999999999993
10
11.749999999999998
20
37.499999999999993
10
11.749999999999998
20
27.965142774872934
10
13.999999999999996
20
23.499999999999996
10
13.999999999999996
20
3.5000000000000004
10
7.9999999999999991
20
3.5000000000000004
10
7.9999999999999991
20
4.5000000000000009
10
12.999999999999998
20
4.5000000000000009
10
12.999999999999998
20
23.499999999999996
10
10.749999999999996
20
27.965142774872938
0
LWPOLYLINE
5
119
100
AcDbEntity
8
0
100
AcDbPolyline
90
4
70
1
43
0.0
10
0
20
37.499999999999993
10
0
20
0
10
14.999999999999998
20
0
10
14.999999999999998
20
37.499999999999993
0
LWPOLYLINE
5
120
100
AcDbEntity
8
0
100
AcDbPolyline
90
10
70
1
43
0.0
10
52.250000000000014
20
4.25
10
47.000000000000014
20
4.25
10
47.000000000000014
20
23.499999999999996
10
49.250000000000007
20
27.965142774872934
10
49.250000000000007
20
37.499999999999993
10
48.250000000000014
20
37.499999999999993
10
48.250000000000014
20
27.965142774872934
10
46
20
23.499999999999996
10
46
20
3.75
10
52.250000000000014
20
3.75
0
LWPOLYLINE
5
121
100
AcDbEntity
8
0
100
AcDbPolyline
90
10
70
1
43
0.0
10
21
20
-14.000000000000007
10
21.75
20
-9.534857225127066
10
21.75
20
-4.4408920985006262e-15
10
20.749999999999996
20
-4.4408920985006262e-15
10
20.749999999999996
20
-9.534857225127066
10
20
20
-14.000000000000007
10
20
20
-33
10
19
20
-33
10
19
20
-34.000000000000007
10
21
20
-34.000000000000007
0
LWPOLYLINE
5
122
100
AcDbEntity
8
0
100
AcDbPolyline
90
14
70
1
43
0.0
10
61
20
-14.000000000000011
10
63.249999999999993
20
-9.5348572251270696
10
63.249999999999993
20
-6.6613381477509392e-15
10
64.249999999999986
20
-6.6613381477509392e-15
10
64.249999999999986
20
-9.5348572251270696
10
61.999999999999993
20
-14.000000000000011
10
61.999999999999993
20
-33.000000000000007
10
64.5
20
-33.000000000000007
10
64.5
20
-32.059989125988679
10
66
20
-32.059989125988679
10
66
20
-35.0599891259887
10
64.5
20
-35.0599891259887
10
64.5
20
-34.000000000000014
10
61
20
-34.000000000000014
0
LWPOLYLINE
5
123
100
AcDbEntity
8
0
100
AcDbPolyline
90
12
70
1
43
0.0
10
53.000000000000007
20
23.499999999999996
10
51.750000000000007
20
27.965142774872934
10
51.750000000000007
20
37.499999999999993
10
50.749999999999993
20
37.499999999999993
10
50.749999999999993
20
27.965142774872934
10
52.000000000000014
20
23.499999999999996
10
52.000000000000014
20
8.4000000000000004
10
51.100000000000009
20
8.4000000000000004
10
51.100000000000009
20
5.6000000000000005
10
53.900000000000006
20
5.6000000000000005
10
53.900000000000006
20
8.4000000000000004
10
53.000000000000007
20
8.4000000000000004
0
LWPOLYLINE
5
124
100
AcDbEntity
8
0
100
AcDbPolyline
90
14
70
1
43
0.0
10
62.000000000000014
20
23.499999999999996
10
64.25
20
27.965142774872934
10
64.25
20
37.499999999999993
10
63.250000000000014
20
37.499999999999993
10
63.250000000000014
20
27.965142774872934
10
61
20
23.499999999999996
10
61
20
3.75
10
66.261314003335755
20
3.75
10
67.250000000000014
20
3.9000000000000004
10
67.400000000000006
20
3.9000000000000004
10
67.400000000000006
20
4.1000000000000005
10
67.250000000000014
20
4.1000000000000005
10
66.261314003335755
20
4.25
10
62.000000000000014
20
4.25
0
LWPOLYLINE
5
125
100
AcDbEntity
8
0
100
AcDbPolyline
90
14
70
1
43
0.0
10
73.999999999999986
20
-34.000000000000014
10
70.499999999999986
20
-34.000000000000014
10
70.499999999999986
20
-35.059989125988686
10
69
20
-35.059989125988686
10
69
20
-32.059989125988679
10
70.499999999999986
20
-32.059989125988679
10
70.499999999999986
20
-33.000000000000007
10
72.999999999999986
20
-33.000000000000007
10
72.999999999999986
20
-14.000000000000011
10
70.75
20
-9.5348572251270696
10
70.75
20
-6.6613381477509392e-15
10
71.749999999999986
20
-6.6613381477509392e-15
10
71.749999999999986
20
-9.5348572251270696
10
73.999999999999986
20
-14.000000000000012
0
LWPOLYLINE
5
126
100
AcDbEntity
8
0
100
AcDbPolyline
90
14
70
1
43
0.0
10
57.999999999999986
20
-14.000000000000011
10
55.749999999999993
20
-9.5348572251270696
10
55.749999999999993
20
-6.6613381477509392e-15
10
56.749999999999986
20
-6.6613381477509392e-15
10
56.749999999999986
20
-9.5348572251270696
10
58.999999999999986
20
-14.000000000000012
10
58.999999999999986
20
-34.000000000000014
10
55.499999999999986
20
-34.000000000000014
10
55.499999999999986
20
-35.059989125988686
10
54
20
-35.059989125988686
10
54
20
-32.059989125988686
10
55.499999999999986
20
-32.059989125988686
10
55.499999999999986
20
-33.000000000000007
10
57.999999999999986
20
-33.000000000000007
0
LWPOLYLINE
5
127
100
AcDbEntity
8
0
100
AcDbPolyline
90
14
70
1
43
0.0
10
46.999999999999993
20
-14.000000000000011
10
49.249999999999986
20
-9.5348572251270696
10
49.249999999999986
20
-6.6613381477509392e-15
10
48.249999999999993
20
-6.6613381477509392e-15
10
48.249999999999993
20
-9.5348572251270696
10
46
20
-14.000000000000012
10
46
20
-34.000000000000014
10
49.499999999999993
20
-34.000000000000014
10
49.499999999999993
20
-35.0599891259887
10
51
20
-35.0599891259887
10
51
20
-32.059989125988686
10
49.499999999999993
20
-32.059989125988686
10
49.499999999999993
20
-33.000000000000007
10
46.999999999999993
20
-33.000000000000007
0
LWPOLYLINE
5
128
100
AcDbEntity
8
0
100
AcDbPolyline
90
10
70
1
43
0.0
10
24.25
20
-9.534857225127066
10
24.999999999999996
20
-14.000000000000007
10
24.999999999999996
20
-33
10
25.999999999999996
20
-33
10
25.999999999999996
20
-34.000000000000007
10
23.999999999999993
20
-34.000000000000007
10
23.999999999999993
20
-14.000000000000007
10
23.249999999999996
20
-9.534857225127066
10
23.249999999999996
20
-4.4408920985006262e-15
10
24.25
20
-4.4408920985006262e-15
0
LINE
5
129
100
AcDbEntity
8
0
100
AcDbLine
10
60
20
-6.6613381477509392e-15
30
0
11
60
21
-37.500000000000007
31
0
0
LWPOLYLINE
5
130
100
AcDbEntity
8
0
100
AcDbPolyline
90
14
70
1
43
0.0
10
70.75
20
37.499999999999993
10
71.75
20
37.499999999999993
10
71.75
20
27.965142774872934
10
74
20
23.499999999999996
10
74
20
3.75
10
68.738685996664259
20
3.75
10
67.75
20
3.9000000000000004
10
67.600000000000009
20
3.9000000000000004
10
67.600000000000009
20
4.1000000000000005
10
67.75
20
4.1000000000000005
10
68.738685996664259
20
4.25
10
73
20
4.25
10
73
20
23.499999999999996
10
70.75
20
27.965142774872938
0
LWPOLYLINE
5
131
100
AcDbEntity
8
0
100
AcDbPolyline
90
10
70
1
43
0.0
10
39.249999999999993
20
-4.4408920985006262e-15
10
39.249999999999993
20
-9.534857225127066
10
39.999999999999993
20
-14.000000000000007
10
39.999999999999993
20
-33
10
41
20
-33
10
41
20
-34.000000000000007
10
38.999999999999993
20
-34.000000000000007
10
38.999999999999993
20
-14.000000000000007
10
38.25
20
-9.534857225127066
10
38.25
20
-4.4408920985006262e-15
0
LWPOLYLINE
5
132
100
AcDbEntity
8
0
100
AcDbPolyline
90
10
70
1
43
0.0
10
31
20
-14.000000000000007
10
33.25
20
-9.534857225127066
10
33.25
20
-4.4408920985006262e-15
10
34.25
20
-4.4408920985006262e-15
10
34.25
20
-9.534857225127066
10
31.999999999999996
20
-14.000000000000007
10
31.999999999999996
20
-33
10
33
20
-33
10
33
20
-34.000000000000007
10
31
20
-34.000000000000007
0
LWPOLYLINE
5
133
100
AcDbEntity
8
0
100
AcDbPolyline
90
12
70
1
43
0.0
10
8.0000000000000071
20
-14.000000000000004
10
6.7500000000000071
20
-9.534857225127066
10
6.7500000000000071
20
-4.4408920985006262e-15
10
5.7499999999999929
20
-4.4408920985006262e-15
10
5.7499999999999929
20
-9.534857225127066
10
7.0000000000000107
20
-14.000000000000004
10
7.0000000000000107
20
-29.100000000000001
10
6.1000000000000121
20
-29.100000000000001
10
6.1000000000000121
20
-31.899999999999999
10
8.9000000000000057
20
-31.899999999999999
10
8.9000000000000057
20
-29.100000000000001
10
8.0000000000000071
20
-29.100000000000001
0
LINE
5
134
100
AcDbEntity
8
0
100
AcDbLine
10
45
20
-37.500000000000007
30
0
11
60
21
-37.500000000000007
31
0
0
LINE
5
135
100
AcDbEntity
8
0
100
AcDbLine
10
30
20
-4.4408920985006262e-15
30
0
11
30
21
-37.500000000000007
31
0
0
LWPOLYLINE
5
136
100
AcDbEntity
8
0
100
AcDbPolyline
90
4
70
1
43
0.0
10
75
20
37.499999999999993
10
60
20
37.499999999999993
10
60
20
0
10
75
20
0
0
LWPOLYLINE
5
137
100
AcDbEntity
8
0
100
AcDbPolyline
90
10
70
1
43
0.0
10
28.999999999999993
20
-14.000000000000007
10
26.75
20
-9.534857225127066
10
26.75
20
-4.4408920985006262e-15
10
25.749999999999996
20
-4.4408920985006262e-15
10
25.749999999999996
20
-9.534857225127066
10
28
20
-14.000000000000007
10
28
20
-33
10
26.999999999999996
20
-33
10
26.999999999999996
20
-34.000000000000007
10
28.999999999999993
20
-34.000000000000007
0
LWPOLYLINE
5
138
100
AcDbEntity
8
0
100
AcDbPolyline
90
10
70
1
43
0.0
10
37.75
20
4.25
10
37.75
20
3.75
10
44
20
3.75
10
44
20
23.499999999999996
10
41.750000000000007
20
27.965142774872934
10
41.750000000000007
20
37.499999999999993
10
40.749999999999993
20
37.499999999999993
10
40.749999999999993
20
27.965142774872938
10
43.000000000000007
20
23.499999999999996
10
43.000000000000007
20
4.25
0
LWPOLYLINE
5
139
100
AcDbEntity
8
0
100
AcDbPolyline
90
12
70
1
43
0.0
10
68
20
8.4000000000000004
10
68.900000000000006
20
8.4000000000000004
10
68.900000000000006
20
5.6000000000000005
10
66.100000000000009
20
5.6000000000000005
10
66.100000000000009
20
8.4000000000000004
10
67.000000000000014
20
8.4000000000000004
10
67.000000000000014
20
23.499999999999996
10
65.75
20
27.965142774872934
10
65.75
20
37.499999999999993
10
66.75
20
37.499999999999993
10
66.75
20
27.965142774872934
10
68
20
23.499999999999996
0
LWPOLYLINE
5
140
100
AcDbEntity
8
0
100
AcDbPolyline
90
10
70
1
43
0.0
10
36
20
-14.000000000000007
10
36.75
20
-9.534857225127066
10
36.75
20
-4.4408920985006262e-15
10
35.75
20
-4.4408920985006262e-15
10
35.75
20
-9.534857225127066
10
35
20
-14.000000000000007
10
35
20
-33
10
34
20
-33
10
34
20
-34.000000000000007
10
36
20
-34.000000000000007
0
LINE
5
141
100
AcDbEntity
8
0
100
AcDbLine
10
60
20
-6.6613381477509392e-15
30
0
11
60
21
-37.500000000000007
31
0
0
LWPOLYLINE
5
142
100
AcDbEntity
8
0
100
AcDbPolyline
90
10
70
1
43
0.0
10
40.749999999999993
20
-4.4408920985006262e-15
10
40.749999999999993
20
-9.534857225127066
10
42.999999999999986
20
-14.000000000000007
10
42.999999999999986
20
-33
10
41.999999999999993
20
-33
10
41.999999999999993
20
-34.000000000000007
10
43.999999999999986
20
-34.000000000000007
10
43.999999999999986
20
-14.000000000000007
10
41.749999999999986
20
-9.534857225127066
10
41.749999999999986
20
-4.4408920985006262e-15
0
LWPOLYLINE
5
143
100
AcDbEntity
8
0
100
AcDbPolyline
90
14
70
1
43
0.0
10
13.000000000000007
20
-14.000000000000004
10
10.749999999999993
20
-9.5348572251270625
10
10.749999999999993
20
-4.4408920985006262e-15
10
11.750000000000007
20
-4.4408920985006262e-15
10
11.750000000000007
20
-9.534857225127066
10
14.000000000000004
20
-14.000000000000004
10
14.000000000000004
20
-33.75
10
8.738685996664266
20
-33.75
10
7.7500000000000036
20
-33.600000000000001
10
7.6000000000000068
20
-33.600000000000001
10
7.6000000000000068
20
-33.399999999999999
10
7.7500000000000036
20
-33.399999999999999
10
8.738685996664266
20
-33.25
10
13.000000000000007
20
-33.25
0
LWPOLYLINE
5
144
100
AcDbEntity
8
0
100
AcDbPolyline
90
4
70
1
43
0.0
10
15
20
-37.5
10
15
20
-4.4408920985006262e-15
10
0
20
-4.4408920985006262e-15
10
0
20
-37.5
0
LWPOLYLINE
5
145
100
AcDbEntity
8
0
100
AcDbPolyline
90
10
70
1
43
0.0
10
31
20
23.499999999999996
10
31
20
3.75
10
37.250000000000014
20
3.75
10
37.250000000000014
20
4.25
10
32.000000000000007
20
4.25
10
32.000000000000007
20
23.499999999999996
10
34.250000000000007
20
27.965142774872934
10
34.250000000000007
20
37.499999999999993
10
33.250000000000007
20
37.499999999999993
10
33.250000000000007
20
27.965142774872934
0
LINE
5
146
100
AcDbEntity
8
0
100
AcDbLine
10
45
20
-4.4408920985006262e-15
30
0
11
30
21
-4.4408920985006262e-15
31
0
0
LWPOLYLINE
5
147
100
AcDbEntity
8
0
100
AcDbPolyline
90
12
70
1
43
0.0
10
23
20
8.4000000000000004
10
23
20
23.499999999999996
10
21.75
20
27.965142774872934
10
21.75
20
37.499999999999993
10
20.749999999999996
20
37.499999999999993
10
20.749999999999996
20
27.965142774872934
10
22
20
23.499999999999996
10
22
20
8.4000000000000004
10
21.100000000000001
20
8.4000000000000004
10
21.100000000000001
20
5.6000000000000005
10
23.900000000000002
20
5.6000000000000005
10
23.900000000000002
20
8.4000000000000004
0
LWPOLYLINE
5
148
100
AcDbEntity
8
0
100
AcDbPolyline
90
10
70
1
43
0.0
10
59
20
23.499999999999996
10
59
20
3.75
10
52.75
20
3.75
10
52.75
20
4.25
10
58.000000000000007
20
4.25
10
58.000000000000007
20
23.499999999999996
10
55.749999999999993
20
27.965142774872938
10
55.749999999999993
20
37.499999999999993
10
56.750000000000007
20
37.499999999999993
10
56.750000000000007
20
27.965142774872934
0
LWPOLYLINE
5
149
100
AcDbEntity
8
0
100
AcDbPolyline
90
12
70
1
43
0.0
10
38.000000000000007
20
23.499999999999996
10
36.750000000000007
20
27.965142774872934
10
36.750000000000007
20
37.499999999999993
10
35.749999999999993
20
37.499999999999993
10
35.749999999999993
20
27.965142774872934
10
37.000000000000014
20
23.499999999999996
10
37.000000000000014
20
8.4000000000000004
10
36.100000000000009
20
8.4000000000000004
10
36.100000000000009
20
5.6000000000000005
10
38.900000000000006
20
5.6000000000000005
10
38.900000000000006
20
8.4000000000000004
10
38.000000000000007
20
8.4000000000000004
0
LWPOLYLINE
5
150
100
AcDbEntity
8
0
100
AcDbPolyline
90
10
70
1
43
0.0
10
16
20
3.5000000000000004
10
16
20
23.499999999999996
10
18.25
20
27.965142774872934
10
18.25
20
37.499999999999993
10
19.25
20
37.499999999999993
10
19.25
20
27.965142774872934
10
17
20
23.499999999999996
10
17
20
4.5000000000000009
10
22
20
4.5000000000000009
10
22
20
3.5000000000000004
0
LWPOLYLINE
5
151
100
AcDbEntity
8
0
100
AcDbPolyline
90
4
70
1
43
0.0
10
30.000000000000004
20
0
10
45
20
0
10
45
20
37.499999999999993
10
30.000000000000004
20
37.499999999999993
0
LINE
5
152
100
AcDbEntity
8
0
100
AcDbLine
10
30
20
-37.500000000000007
30
0
11
45
21
-37.500000000000007
31
0
0
LWPOLYLINE
5
153
100
AcDbEntity
8
0
100
AcDbPolyline
90
10
70
1
43
0.0
10
28.999999999999993
20
3.5000000000000004
10
28.999999999999993
20
23.499999999999996
10
26.75
20
27.965142774872934
10
26.75
20
37.499999999999993
10
25.749999999999996
20
37.499999999999993
10
25.749999999999996
20
27.965142774872938
10
28
20
23.499999999999996
10
28
20
4.5000000000000009
10
23
20
4.5000000000000009
10
23
20
3.5000000000000004
0
LINE
5
154
100
AcDbEntity
8
0
100
AcDbLine
10
30
20
-4.4408920985006262e-15
30
0
11
15
21
-4.4408920985006262e-15
31
0
0
LWPOLYLINE
5
155
100
AcDbEntity
8
0
100
AcDbPolyline
90
14
70
1
43
0.0
10
3.2500000000000107
20
-9.534857225127066
10
3.2500000000000107
20
-4.4408920985006262e-15
10
4.2500000000000071
20
-4.4408920985006262e-15
10
4.2500000000000071
20
-9.534857225127066
10
2.0000000000000107
20
-14.000000000000004
10
2.0000000000000107
20
-33.25
10
6.2613140033357517
20
-33.25
10
7.2500000000000142
20
-33.399999999999999
10
7.400000000000011
20
-33.399999999999999
10
7.400000000000011
20
-33.600000000000001
10
7.2500000000000142
20
-33.600000000000001
10
6.2613140033357517
20
-33.75
10
0.99999999999999645
20
-33.75
10
0.99999999999999645
20
-14.000000000000004
0
LINE
5
156
100
AcDbEntity
8
0
100
AcDbLine
10
49.249999999999986
20
-6.6613381477509392e-15
30
0
11
45
21
-6.6613381477509392e-15
31
0
0
LINE
5
157
100
AcDbEntity
8
0
100
AcDbLine
10
75
20
-6.6613381477509392e-15
30
0
11
70.75
21
-6.6613381477509392e-15
31
0
0
LINE
5
158
100
AcDbEntity
8
0
100
AcDbLine
10
15
20
-37.500000000000007
30
0
11
30
21
-37.500000000000007
31
0
0
LWPOLYLINE
5
159
100
AcDbEntity
8
0
100
AcDbPolyline
90
10
70
1
43
0.0
10
18
20
-34.000000000000007
10
16
20
-34.000000000000007
10
16
20
-14.000000000000007
10
18.249999999999996
20
-9.534857225127066
10
18.249999999999996
20
-4.4408920985006262e-15
10
19.25
20
-4.4408920985006262e-15
10
19.25
20
-9.534857225127066
10
16.999999999999996
20
-14.000000000000007
10
16.999999999999996
20
-33
10
18
20
-33
0
LINE
5
160
100
AcDbEntity
8
0
100
AcDbLine
10
60
20
-37.500000000000007
30
0
11
75
21
-37.500000000000007
31
0
0
LINE
5
161
100
AcDbEntity
8
0
100
AcDbLine
10
15
20
-4.4408920985006262e-15
30
0
11
15
21
-37.500000000000007
31
0
0
LINE
5
162
100
AcDbEntity
8
0
100
AcDbLine
10
75
20
-6.6613381477509392e-15
30
0
11
75
21
-37.500000000000007
31
0
0
LINE
5
163
100
AcDbEntity
8
0
100
AcDbLine
10
30
20
-4.4408920985006262e-15
30
0
11
30
21
-37.500000000000007
31
0
0
LINE
5
164
100
AcDbEntity
8
0
100
AcDbLine
10
45
20
-6.6613381477509392e-15
30
0
11
45
21
-37.500000000000007
31
0
0
LINE
5
165
100
AcDbEntity
8
0
100
AcDbLine
10
45
20
-4.4408920985006262e-15
30
0
11
45
21
-37.500000000000007
31
0
0
LINE
5
166
100
AcDbEntity
8
0
100
AcDbLine
10
64.249999999999986
20
-6.6613381477509392e-15
30
0
11
70.75
21
-6.6613381477509392e-15
31
0
0
LINE
5
167
100
AcDbEntity
8
0
100
AcDbLine
10
64.249999999999986
20
-6.6613381477509392e-15
30
0
11
60
21
-6.6613381477509392e-15
31
0
0
LINE
5
168
100
AcDbEntity
8
0
100
AcDbLine
10
49.249999999999986
20
-6.6613381477509392e-15
30
0
11
55.749999999999993
21
-6.6613381477509392e-15
31
0
0
LINE
5
169
100
AcDbEntity
8
0
100
AcDbLine
10
60
20
-6.6613381477509392e-15
30
0
11
55.749999999999993
21
-6.6613381477509392e-15
31
0
0
LINE
5
170
100
AcDbEntity
8
0
100
AcDbLine
10
7
20
4
30
0
11
7.9999999999999991
21
4
31
0
0
LINE
5
171
100
AcDbEntity
8
0
100
AcDbLine
10
7.5
20
4
30
0
11
7.4999999999999991
21
37.499999999999993
31
0
0
LINE
5
172
100
AcDbEntity
8
0
100
AcDbLine
10
51
20
-33.559989125988693
30
0
11
54
21
-33.559989125988693
31
0
0
LINE
5
173
100
AcDbEntity
8
0
100
AcDbLine
10
52.5
20
-33.559989125988693
30
0
11
51.651370320553923
21
-2.4754576440900311
31
0
0
ENDSEC
0
SECTION
2
OBJECTS
0
DICTIONARY
5
C
100
AcDbDictionary
3
ACAD_GROUP
350
D
3
ACAD_MLINESTYLE
350
17
0
DICTIONARY
5
D
100
AcDbDictionary
0
DICTIONARY
5
1A
330
C
100
AcDbDictionary
0
DICTIONARY
5
17
100
AcDbDictionary
0
ENDSEC
0
EOF
